<?xml version="1.0" encoding="iso-8859-1"?>
<!-- Uploaded to: SVG Repo, www.svgrepo.com, Generator: SVG Repo Mixer Tools -->
<!DOCTYPE svg PUBLIC "-//W3C//DTD SVG 1.1//EN" "http://www.w3.org/Graphics/SVG/1.1/DTD/svg11.dtd">
<svg fill="#000000" version="1.1" id="Capa_1" xmlns="http://www.w3.org/2000/svg" xmlns:xlink="http://www.w3.org/1999/xlink" 
	 width="800px" height="800px" viewBox="0 0 46.484 46.484"
	 xml:space="preserve">
<g>
	<g>
		<path d="M3.749,37.402c0.79,0.392,1.636,0.59,2.513,0.59c2.169,0,4.113-1.205,5.076-3.146c1.156-2.33,0.548-5.076-1.302-6.732
			l12.508-16.937c0.423,0.1,0.857,0.151,1.3,0.151c1.555,0,2.988-0.628,4.034-1.696l7.713,5.886
			c-0.164,0.235-0.315,0.481-0.446,0.744c-1.188,2.392-0.515,5.225,1.453,6.864l-3.841,12.106c-0.284-0.045-0.571-0.074-0.863-0.074
			c-2.168,0-4.112,1.205-5.075,3.146c-1.388,2.799-0.24,6.202,2.557,7.59c0.789,0.391,1.636,0.59,2.513,0.59
			c2.169,0,4.112-1.205,5.076-3.146c1.187-2.393,0.515-5.225-1.453-6.864l3.841-12.106c0.284,0.045,0.571,0.074,0.864,0.074
			c2.167,0,4.112-1.205,5.075-3.146c1.388-2.796,0.24-6.201-2.557-7.589c-0.791-0.392-1.637-0.591-2.514-0.591
			c-0.787,0-1.542,0.163-2.232,0.458L29.35,6.981c0.6-2.508-0.58-5.195-2.986-6.39C25.572,0.199,24.727,0,23.85,0
			c-2.168,0-4.112,1.206-5.076,3.147c-1.117,2.252-0.589,4.897,1.12,6.567L7.299,26.768c-0.338-0.062-0.681-0.104-1.03-0.104
			c-2.168,0-4.112,1.207-5.075,3.148C-0.195,32.609,0.952,36.014,3.749,37.402z M34.275,42.006c-0.453,0.913-1.369,1.48-2.39,1.48
			c-0.41,0-0.808-0.094-1.181-0.278c-1.314-0.652-1.854-2.253-1.2-3.569c0.452-0.912,1.366-1.48,2.388-1.48
			c0.411,0,0.809,0.095,1.18,0.279C34.388,39.089,34.928,40.689,34.275,42.006z M41.4,16.394c1.314,0.653,1.854,2.254,1.202,3.568
			c-0.452,0.913-1.368,1.48-2.389,1.48c-0.411,0-0.81-0.094-1.181-0.278c-1.315-0.652-1.854-2.253-1.203-3.568
			c0.453-0.913,1.369-1.48,2.39-1.48C40.632,16.115,41.027,16.209,41.4,16.394z M21.461,4.482c0.453-0.913,1.368-1.48,2.389-1.48
			c0.411,0,0.809,0.094,1.18,0.278c1.315,0.653,1.855,2.254,1.203,3.568c-0.453,0.913-1.367,1.48-2.389,1.48
			c-0.411,0-0.809-0.094-1.181-0.278C21.347,7.398,20.808,5.797,21.461,4.482z M3.881,31.145c0.453-0.912,1.367-1.48,2.388-1.48
			c0.411,0,0.808,0.095,1.18,0.279c1.315,0.651,1.854,2.252,1.202,3.568c-0.636,1.28-2.269,1.846-3.569,1.202
			C3.766,34.062,3.228,32.461,3.881,31.145z"/>
	</g>
</g>
</svg>